# xmcd CD database file
#
# Track frame offsets:
#	150
#	13125
#	24140
#	35515
#	47585
#	60010
#	72165
#	84932
#	98752
#	112267
#	124215
#	137450
#	150665
#	164785
#	178035
#	190847
#	204447
#	215550
#	230227
#	247357
#	262337
#	279490
#
# Disc length: 3894 seconds
#
# Revision: 0
# Processed by: cddbd v1.5.1PL2 Copyright (c) Steve Scherf et al.
# Submitted via: CDex 1.51
#
DISCID=410f3416
DTITLE=Sarah Vaughan - Sometimes I Feel Like A Motherless Child
DYEAR=2001
DGENRE=Jazz
TTITLE0=East of the Sun (And West of The Moon)
TTITLE1=No Smoke Blues
TTITLE2=Interlude (A Night in Tunisia)
TTITLE3=Signing Off
TTITLE4=I'd Rather Have A Memory Than A Dream
TTITLE5=Mean to Me
TTITLE6=If You Could See Me Now
TTITLE7=I Can Make You Love Me If You'll Let Me
TTITLE8=You're NOt The Kind
TTITLE9=My Kinda Love (One Way to Paradise)
TTITLE10=Body And Soul
TTITLE11=I Cover the Waterfront
TTITLE12=Tenderly
TTITLE13=The Lord's Prayer
TTITLE14=Sometimes I Feel Like A Motherless Child
TTITLE15=Love Me Or Leave Me
TTITLE16=I'm Gonna Sit Right Down And Write Myself A Letter
TTITLE17=The One I Love Belongs to Somebody Else
TTITLE18=Don't Blame Me
TTITLE19=The Man I Love
TTITLE20=I Cried for You
TTITLE21=What A Difference A Day Made
EXTD=YEAR: 2001
EXTT0=
EXTT1=
EXTT2=
EXTT3=
EXTT4=
EXTT5=
EXTT6=
EXTT7=
EXTT8=
EXTT9=
EXTT10=
EXTT11=
EXTT12=
EXTT13=
EXTT14=
EXTT15=
EXTT16=
EXTT17=
EXTT18=
EXTT19=
EXTT20=
EXTT21=
PLAYORDER=
